<svg width="1920" height="1080" viewBox="0 0 1920 1080" fill="none" xmlns="http://www.w3.org/2000/svg">
<g clip-path="url(#clip0_1_161)">
<rect width="1920" height="1080" fill="#302E36"/>
<rect width="1920" height="1080" fill="#302E36"/>
<path d="M281.409 380.953L118.24 297.694C115.516 296.296 113.427 293.911 112.401 291.025C111.374 288.14 111.488 284.971 112.718 282.167C113.948 279.362 116.201 277.132 119.019 275.932C121.837 274.732 125.007 274.653 127.881 275.71L129.168 276.279L292.337 359.537C295.062 360.936 297.151 363.321 298.177 366.206C299.203 369.092 299.09 372.26 297.86 375.065C296.63 377.87 294.376 380.1 291.558 381.3C288.741 382.499 285.571 382.579 282.697 381.522L281.409 380.953ZM188.927 444.54L144.17 393.316C142.164 391.012 141.11 388.03 141.222 384.977C141.334 381.924 142.604 379.028 144.774 376.878C146.944 374.727 149.852 373.483 152.906 373.399C155.96 373.314 158.931 374.395 161.217 376.422L162.278 377.494L199.124 419.664L241.295 382.818C243.595 380.788 246.585 379.715 249.651 379.817C252.717 379.92 255.628 381.19 257.788 383.368C259.948 385.547 261.194 388.468 261.271 391.535C261.347 394.602 260.249 397.582 258.2 399.866L257.116 400.926L205.892 445.683C203.687 447.61 200.855 448.665 197.927 448.652C194.998 448.639 192.176 447.558 189.988 445.612L188.927 444.54ZM152.242 273.338C150.315 271.133 149.259 268.301 149.272 265.372C149.286 262.444 150.367 259.622 152.313 257.434L153.384 256.385L204.621 211.617C206.826 209.69 209.658 208.634 212.586 208.647C215.514 208.661 218.337 209.742 220.525 211.688L221.598 212.76L266.294 263.993C268.3 266.297 269.355 269.278 269.242 272.331C269.13 275.384 267.86 278.28 265.69 280.431C263.52 282.581 260.613 283.825 257.559 283.91C254.505 283.994 251.533 282.913 249.247 280.886L248.175 279.802L211.387 237.659L169.205 274.505C166.803 276.603 163.667 277.661 160.486 277.446C157.304 277.232 154.338 275.763 152.24 273.362L152.242 273.338Z" fill="#FF3C82"/>
<path d="M1363.99 453.894L1200.82 370.635C1198.1 369.237 1196.01 366.852 1194.98 363.966C1193.96 361.081 1194.07 357.912 1195.3 355.107C1196.53 352.303 1198.79 350.073 1201.6 348.873C1204.42 347.673 1207.59 347.594 1210.46 348.651L1211.75 349.22L1374.92 432.478C1377.65 433.876 1379.73 436.262 1380.76 439.147C1381.79 442.033 1381.67 445.201 1380.44 448.006C1379.21 450.811 1376.96 453.041 1374.14 454.241C1371.32 455.44 1368.16 455.52 1365.28 454.463L1363.99 453.894ZM1271.51 517.481L1226.75 466.257C1224.75 463.953 1223.69 460.971 1223.81 457.918C1223.92 454.865 1225.19 451.969 1227.36 449.819C1229.53 447.668 1232.44 446.424 1235.49 446.34C1238.54 446.255 1241.52 447.336 1243.8 449.363L1244.86 450.435L1281.71 492.605L1323.88 455.759C1326.18 453.729 1329.17 452.656 1332.23 452.758C1335.3 452.861 1338.21 454.131 1340.37 456.309C1342.53 458.488 1343.78 461.409 1343.85 464.476C1343.93 467.543 1342.83 470.523 1340.78 472.807L1339.7 473.867L1288.48 518.624C1286.27 520.551 1283.44 521.606 1280.51 521.593C1277.58 521.58 1274.76 520.499 1272.57 518.553L1271.51 517.481ZM1234.83 346.279C1232.9 344.074 1231.84 341.241 1231.86 338.313C1231.87 335.385 1232.95 332.562 1234.9 330.375L1235.97 329.326L1287.2 284.557C1289.41 282.631 1292.24 281.575 1295.17 281.588C1298.1 281.601 1300.92 282.683 1303.11 284.629L1304.18 285.701L1348.88 336.934C1350.88 339.238 1351.94 342.219 1351.83 345.272C1351.71 348.325 1350.44 351.221 1348.27 353.372C1346.1 355.522 1343.2 356.766 1340.14 356.851C1337.09 356.935 1334.12 355.854 1331.83 353.827L1330.76 352.743L1293.97 310.6L1251.79 347.446C1249.39 349.543 1246.25 350.601 1243.07 350.387C1239.89 350.173 1236.92 348.704 1234.82 346.303L1234.83 346.279Z" fill="#FF3C82"/>
<path d="M54.848 365.688L-108.321 282.429C-111.046 281.031 -113.134 278.646 -114.161 275.76C-115.187 272.875 -115.074 269.706 -113.844 266.902C-112.614 264.097 -110.36 261.867 -107.542 260.667C-104.724 259.467 -101.555 259.388 -98.6804 260.445L-97.393 261.014L65.7759 344.272C68.5008 345.671 70.5894 348.056 71.6157 350.941C72.642 353.827 72.5286 356.995 71.2987 359.8C70.0687 362.605 67.8149 364.835 64.9971 366.035C62.1792 367.235 59.0098 367.314 56.1354 366.257L54.848 365.688ZM-37.6341 429.275L-82.3915 378.051C-84.3978 375.747 -85.4519 372.765 -85.3396 369.712C-85.2274 366.659 -83.9572 363.763 -81.7871 361.613C-79.6171 359.462 -76.7098 358.219 -73.6558 358.134C-70.6019 358.049 -67.6302 359.13 -65.3444 361.157L-64.2837 362.229L-27.4372 404.4L14.7332 367.553C17.0338 365.524 20.0231 364.45 23.0892 364.552C26.1554 364.655 29.0665 365.925 31.2266 368.103C33.3868 370.282 34.6327 373.203 34.7093 376.27C34.7859 379.337 33.6875 382.317 31.6387 384.601L30.5549 385.661L-20.6694 430.418C-22.8745 432.345 -25.7067 433.4 -28.6349 433.387C-31.563 433.374 -34.3857 432.293 -36.5734 430.347L-37.6341 429.275ZM-74.3198 258.073C-76.2464 255.868 -77.3021 253.036 -77.289 250.108C-77.2759 247.179 -76.1948 244.357 -74.2486 242.169L-73.1776 241.12L-21.9405 196.352C-19.7354 194.425 -16.9031 193.369 -13.975 193.383C-11.0469 193.396 -8.22423 194.477 -6.03647 196.423L-4.96378 197.496L39.7328 248.728C41.7391 251.032 42.7932 254.013 42.6809 257.066C42.5687 260.119 41.2985 263.015 39.1285 265.166C36.9584 267.316 34.0511 268.56 30.9972 268.645C27.9432 268.729 24.9715 267.648 22.6857 265.621L21.6138 264.537L-15.1743 222.394L-57.3567 259.24C-59.7581 261.338 -62.8944 262.396 -66.0758 262.181C-69.2571 261.967 -72.2231 260.498 -74.3215 258.097L-74.3198 258.073Z" fill="#FF3C82"/>
<path d="M1137.43 438.629L974.263 355.37C971.538 353.972 969.449 351.587 968.423 348.701C967.397 345.816 967.51 342.647 968.74 339.842C969.97 337.038 972.224 334.808 975.042 333.608C977.86 332.408 981.029 332.329 983.903 333.386L985.191 333.955L1148.36 417.213C1151.08 418.611 1153.17 420.997 1154.2 423.882C1155.23 426.768 1155.11 429.936 1153.88 432.741C1152.65 435.546 1150.4 437.776 1147.58 438.976C1144.76 440.175 1141.59 440.255 1138.72 439.198L1137.43 438.629ZM1044.95 502.216L1000.19 450.992C998.186 448.688 997.132 445.706 997.244 442.653C997.356 439.6 998.627 436.704 1000.8 434.554C1002.97 432.403 1005.87 431.159 1008.93 431.075C1011.98 430.99 1014.95 432.071 1017.24 434.098L1018.3 435.17L1055.15 477.34L1097.32 440.494C1099.62 438.464 1102.61 437.391 1105.67 437.493C1108.74 437.596 1111.65 438.866 1113.81 441.044C1115.97 443.223 1117.22 446.144 1117.29 449.211C1117.37 452.278 1116.27 455.258 1114.22 457.542L1113.14 458.602L1061.91 503.359C1059.71 505.286 1056.88 506.341 1053.95 506.328C1051.02 506.315 1048.2 505.234 1046.01 503.288L1044.95 502.216ZM1008.26 331.014C1006.34 328.809 1005.28 325.976 1005.29 323.048C1005.31 320.12 1006.39 317.297 1008.34 315.11L1009.41 314.061L1060.64 269.292C1062.85 267.366 1065.68 266.31 1068.61 266.323C1071.54 266.336 1074.36 267.417 1076.55 269.364L1077.62 270.436L1122.32 321.669C1124.32 323.973 1125.38 326.954 1125.26 330.007C1125.15 333.06 1123.88 335.956 1121.71 338.106C1119.54 340.257 1116.63 341.501 1113.58 341.586C1110.53 341.67 1107.56 340.589 1105.27 338.562L1104.2 337.477L1067.41 295.335L1025.23 332.181C1022.83 334.278 1019.69 335.336 1016.51 335.122C1013.33 334.908 1010.36 333.439 1008.26 331.038L1008.26 331.014Z" fill="#FF3C82"/>
<path d="M491.23 395.09L328.061 311.831C325.336 310.433 323.247 308.048 322.221 305.162C321.195 302.277 321.308 299.108 322.538 296.304C323.768 293.499 326.022 291.269 328.84 290.069C331.657 288.869 334.827 288.79 337.701 289.847L338.989 290.416L502.158 373.674C504.882 375.073 506.971 377.458 507.997 380.343C509.024 383.229 508.91 386.397 507.68 389.202C506.45 392.007 504.197 394.237 501.379 395.437C498.561 396.636 495.391 396.716 492.517 395.659L491.23 395.09ZM398.748 458.677L353.99 407.453C351.984 405.149 350.93 402.167 351.042 399.114C351.154 396.061 352.425 393.165 354.595 391.015C356.765 388.864 359.672 387.62 362.726 387.536C365.78 387.451 368.752 388.532 371.037 390.559L372.098 391.631L408.945 433.801L451.115 396.955C453.416 394.925 456.405 393.852 459.471 393.954C462.537 394.057 465.448 395.327 467.608 397.505C469.769 399.684 471.014 402.605 471.091 405.672C471.168 408.739 470.069 411.719 468.02 414.003L466.937 415.063L415.712 459.82C413.507 461.747 410.675 462.802 407.747 462.789C404.819 462.776 401.996 461.695 399.808 459.749L398.748 458.677ZM362.062 287.475C360.135 285.27 359.08 282.437 359.093 279.509C359.106 276.581 360.187 273.759 362.133 271.571L363.204 270.522L414.441 225.754C416.646 223.827 419.479 222.771 422.407 222.784C425.335 222.797 428.157 223.879 430.345 225.825L431.418 226.897L476.115 278.13C478.121 280.434 479.175 283.415 479.063 286.468C478.95 289.521 477.68 292.417 475.51 294.568C473.34 296.718 470.433 297.962 467.379 298.047C464.325 298.131 461.353 297.05 459.067 295.023L457.996 293.939L421.207 251.796L379.025 288.642C376.624 290.74 373.487 291.797 370.306 291.583C367.125 291.369 364.159 289.9 362.06 287.499L362.062 287.475Z" fill="#FF3C82"/>
<path d="M1573.81 468.031L1410.64 384.772C1407.92 383.374 1405.83 380.989 1404.8 378.103C1403.78 375.218 1403.89 372.049 1405.12 369.244C1406.35 366.44 1408.61 364.21 1411.42 363.01C1414.24 361.81 1417.41 361.731 1420.29 362.788L1421.57 363.357L1584.74 446.615C1587.47 448.013 1589.55 450.399 1590.58 453.284C1591.61 456.17 1591.49 459.338 1590.26 462.143C1589.03 464.948 1586.78 467.178 1583.96 468.378C1581.14 469.577 1577.98 469.657 1575.1 468.6L1573.81 468.031ZM1481.33 531.618L1436.57 480.394C1434.57 478.09 1433.51 475.108 1433.63 472.055C1433.74 469.002 1435.01 466.106 1437.18 463.956C1439.35 461.805 1442.26 460.561 1445.31 460.477C1448.36 460.392 1451.34 461.473 1453.62 463.5L1454.68 464.572L1491.53 506.742L1533.7 469.896C1536 467.866 1538.99 466.793 1542.05 466.895C1545.12 466.998 1548.03 468.268 1550.19 470.446C1552.35 472.625 1553.6 475.546 1553.67 478.613C1553.75 481.68 1552.65 484.66 1550.6 486.944L1549.52 488.004L1498.3 532.761C1496.09 534.688 1493.26 535.743 1490.33 535.73C1487.4 535.717 1484.58 534.636 1482.39 532.69L1481.33 531.618ZM1444.65 360.416C1442.72 358.211 1441.66 355.378 1441.68 352.45C1441.69 349.522 1442.77 346.699 1444.72 344.512L1445.79 343.463L1497.02 298.694C1499.23 296.768 1502.06 295.712 1504.99 295.725C1507.92 295.738 1510.74 296.819 1512.93 298.766L1514 299.838L1558.7 351.071C1560.7 353.375 1561.76 356.356 1561.65 359.409C1561.53 362.462 1560.26 365.358 1558.09 367.508C1555.92 369.659 1553.02 370.903 1549.96 370.988C1546.91 371.072 1543.94 369.991 1541.65 367.964L1540.58 366.879L1503.79 324.737L1461.61 361.583C1459.21 363.68 1456.07 364.738 1452.89 364.524C1449.71 364.31 1446.74 362.841 1444.64 360.44L1444.65 360.416Z" fill="#FF3C82"/>
<path d="M701.05 409.227L537.881 325.968C535.156 324.57 533.068 322.185 532.041 319.299C531.015 316.414 531.128 313.245 532.358 310.441C533.588 307.636 535.842 305.406 538.66 304.206C541.478 303.006 544.647 302.927 547.522 303.984L548.809 304.553L711.978 387.811C714.703 389.21 716.792 391.595 717.818 394.48C718.844 397.366 718.731 400.534 717.501 403.339C716.271 406.144 714.017 408.374 711.199 409.574C708.381 410.774 705.212 410.853 702.337 409.796L701.05 409.227ZM608.568 472.814L563.811 421.59C561.804 419.286 560.75 416.304 560.863 413.251C560.975 410.198 562.245 407.302 564.415 405.152C566.585 403.001 569.492 401.757 572.546 401.673C575.6 401.588 578.572 402.669 580.858 404.696L581.918 405.768L618.765 447.939L660.935 411.092C663.236 409.062 666.225 407.989 669.291 408.091C672.357 408.194 675.269 409.464 677.429 411.642C679.589 413.821 680.835 416.742 680.911 419.809C680.988 422.876 679.89 425.856 677.841 428.14L676.757 429.2L625.533 473.957C623.328 475.884 620.495 476.939 617.567 476.926C614.639 476.913 611.816 475.832 609.629 473.886L608.568 472.814ZM571.882 301.612C569.956 299.407 568.9 296.575 568.913 293.646C568.926 290.718 570.007 287.896 571.954 285.708L573.024 284.659L624.262 239.891C626.467 237.964 629.299 236.908 632.227 236.921C635.155 236.935 637.978 238.016 640.166 239.962L641.238 241.034L685.935 292.267C687.941 294.571 688.995 297.552 688.883 300.605C688.771 303.658 687.501 306.554 685.331 308.705C683.161 310.855 680.253 312.099 677.199 312.184C674.145 312.268 671.174 311.187 668.888 309.16L667.816 308.076L631.028 265.933L588.845 302.779C586.444 304.877 583.308 305.935 580.126 305.72C576.945 305.506 573.979 304.037 571.881 301.636L571.882 301.612Z" fill="#FF3C82"/>
<path d="M1783.63 482.168L1620.47 398.909C1617.74 397.511 1615.65 395.126 1614.63 392.24C1613.6 389.355 1613.71 386.186 1614.94 383.381C1616.17 380.577 1618.43 378.347 1621.24 377.147C1624.06 375.947 1627.23 375.868 1630.11 376.925L1631.39 377.494L1794.56 460.752C1797.29 462.15 1799.38 464.536 1800.4 467.421C1801.43 470.307 1801.31 473.475 1800.08 476.28C1798.85 479.085 1796.6 481.315 1793.78 482.514C1790.97 483.714 1787.8 483.794 1784.92 482.737L1783.63 482.168ZM1691.15 545.755L1646.39 494.531C1644.39 492.227 1643.33 489.245 1643.45 486.192C1643.56 483.139 1644.83 480.243 1647 478.093C1649.17 475.942 1652.08 474.698 1655.13 474.614C1658.18 474.529 1661.16 475.61 1663.44 477.637L1664.5 478.709L1701.35 520.879L1743.52 484.033C1745.82 482.003 1748.81 480.93 1751.88 481.032C1754.94 481.134 1757.85 482.405 1760.01 484.583C1762.17 486.762 1763.42 489.683 1763.5 492.75C1763.57 495.817 1762.47 498.797 1760.42 501.081L1759.34 502.141L1708.12 546.898C1705.91 548.824 1703.08 549.88 1700.15 549.867C1697.22 549.854 1694.4 548.773 1692.21 546.827L1691.15 545.755ZM1654.47 374.553C1652.54 372.348 1651.48 369.515 1651.5 366.587C1651.51 363.659 1652.59 360.836 1654.54 358.649L1655.61 357.6L1706.85 312.831C1709.05 310.905 1711.88 309.849 1714.81 309.862C1717.74 309.875 1720.56 310.956 1722.75 312.903L1723.82 313.975L1768.52 365.207C1770.53 367.512 1771.58 370.493 1771.47 373.546C1771.35 376.599 1770.08 379.495 1767.91 381.645C1765.74 383.796 1762.84 385.04 1759.78 385.124C1756.73 385.209 1753.76 384.128 1751.47 382.101L1750.4 381.016L1713.61 338.874L1671.43 375.72C1669.03 377.817 1665.89 378.875 1662.71 378.661C1659.53 378.447 1656.56 376.978 1654.46 374.577L1654.47 374.553Z" fill="#FF3C82"/>
<path d="M910.87 423.364L747.702 340.105C744.977 338.707 742.888 336.322 741.862 333.436C740.835 330.551 740.949 327.382 742.179 324.578C743.409 321.773 745.663 319.543 748.48 318.343C751.298 317.143 754.468 317.064 757.342 318.121L758.63 318.69L921.798 401.948C924.523 403.347 926.612 405.732 927.638 408.617C928.665 411.503 928.551 414.671 927.321 417.476C926.091 420.281 923.837 422.511 921.02 423.711C918.202 424.91 915.032 424.99 912.158 423.933L910.87 423.364ZM818.388 486.951L773.631 435.727C771.625 433.423 770.571 430.441 770.683 427.388C770.795 424.335 772.065 421.439 774.235 419.289C776.405 417.138 779.313 415.894 782.367 415.81C785.421 415.725 788.392 416.806 790.678 418.833L791.739 419.905L828.585 462.075L870.756 425.229C873.056 423.199 876.046 422.126 879.112 422.228C882.178 422.331 885.089 423.601 887.249 425.779C889.409 427.958 890.655 430.879 890.732 433.946C890.808 437.013 889.71 439.993 887.661 442.277L886.577 443.337L835.353 488.094C833.148 490.021 830.316 491.076 827.388 491.063C824.46 491.05 821.637 489.969 819.449 488.023L818.388 486.951ZM781.703 315.749C779.776 313.544 778.72 310.712 778.734 307.783C778.747 304.855 779.828 302.033 781.774 299.845L782.845 298.796L834.082 254.028C836.287 252.101 839.119 251.045 842.047 251.058C844.976 251.072 847.798 252.153 849.986 254.099L851.059 255.171L895.755 306.404C897.762 308.708 898.816 311.689 898.703 314.742C898.591 317.795 897.321 320.691 895.151 322.842C892.981 324.992 890.074 326.236 887.02 326.321C883.966 326.405 880.994 325.324 878.708 323.297L877.636 322.213L840.848 280.07L798.666 316.916C796.264 319.014 793.128 320.072 789.947 319.857C786.765 319.643 783.799 318.174 781.701 315.773L781.703 315.749Z" fill="#FF3C82"/>
<path d="M300.81 93.008L137.641 9.74936C134.916 8.35114 132.828 5.96591 131.801 3.08035C130.775 0.194788 130.888 -2.97364 132.118 -5.77845C133.348 -8.58326 135.602 -10.8131 138.42 -12.0129C141.238 -13.2128 144.407 -13.2922 147.282 -12.2351L148.569 -11.6662L311.738 71.5924C314.463 72.9906 316.552 75.3758 317.578 78.2614C318.604 81.1469 318.491 84.3154 317.261 87.1202C316.031 89.925 313.777 92.1548 310.959 93.3546C308.141 94.5545 304.972 94.6339 302.098 93.5768L300.81 93.008ZM208.328 156.595L163.571 105.371C161.564 103.067 160.51 100.085 160.623 97.0323C160.735 93.9792 162.005 91.0833 164.175 88.9328C166.345 86.7823 169.252 85.5384 172.306 85.4538C175.36 85.3692 178.332 86.4502 180.618 88.4773L181.678 89.5491L218.525 131.719L260.695 94.8729C262.996 92.8434 265.985 91.77 269.051 91.8723C272.118 91.9746 275.029 93.245 277.189 95.4234C279.349 97.6017 280.595 100.523 280.671 103.59C280.748 106.657 279.65 109.637 277.601 111.921L276.517 112.981L225.293 157.738C223.088 159.665 220.255 160.72 217.327 160.707C214.399 160.694 211.576 159.613 209.389 157.667L208.328 156.595ZM171.642 -14.6071C169.716 -16.8122 168.66 -19.6445 168.673 -22.5726C168.686 -25.5007 169.767 -28.3234 171.714 -30.5112L172.785 -31.5599L224.022 -76.3284C226.227 -78.255 229.059 -79.3107 231.987 -79.2976C234.915 -79.2845 237.738 -78.2034 239.926 -76.2572L240.998 -75.1846L285.695 -23.9524C287.701 -21.6483 288.755 -18.667 288.643 -15.6139C288.531 -12.5608 287.261 -9.66493 285.091 -7.51441C282.921 -5.36389 280.013 -4.11999 276.959 -4.03538C273.905 -3.95076 270.934 -5.03177 268.648 -7.05882L267.576 -8.14342L230.788 -50.2858L188.605 -13.4401C186.204 -11.3425 183.068 -10.2845 179.886 -10.4988C176.705 -10.7132 173.739 -12.1823 171.641 -14.5831L171.642 -14.6071Z" fill="#FF3C82"/>
<path d="M1383.39 165.949L1220.23 82.6902C1217.5 81.292 1215.41 78.9068 1214.39 76.0212C1213.36 73.1356 1213.47 69.9672 1214.7 67.1624C1215.93 64.3576 1218.19 62.1278 1221 60.9279C1223.82 59.7281 1226.99 59.6486 1229.87 60.7058L1231.15 61.2746L1394.32 144.533C1397.05 145.931 1399.14 148.317 1400.16 151.202C1401.19 154.088 1401.07 157.256 1399.84 160.061C1398.61 162.866 1396.36 165.096 1393.54 166.295C1390.73 167.495 1387.56 167.575 1384.68 166.518L1383.39 165.949ZM1290.91 229.536L1246.15 178.312C1244.15 176.008 1243.09 173.026 1243.21 169.973C1243.32 166.92 1244.59 164.024 1246.76 161.874C1248.93 159.723 1251.84 158.479 1254.89 158.395C1257.94 158.31 1260.92 159.391 1263.2 161.418L1264.26 162.49L1301.11 204.66L1343.28 167.814C1345.58 165.784 1348.57 164.711 1351.64 164.813C1354.7 164.916 1357.61 166.186 1359.77 168.364C1361.93 170.543 1363.18 173.464 1363.26 176.531C1363.33 179.598 1362.23 182.578 1360.18 184.862L1359.1 185.922L1307.88 230.679C1305.67 232.605 1302.84 233.661 1299.91 233.648C1296.98 233.635 1294.16 232.554 1291.97 230.608L1290.91 229.536ZM1254.23 58.3338C1252.3 56.1287 1251.24 53.2964 1251.26 50.3682C1251.27 47.4401 1252.35 44.6174 1254.3 42.4297L1255.37 41.381L1306.61 -3.38758C1308.81 -5.31411 1311.64 -6.36984 1314.57 -6.35672C1317.5 -6.34361 1320.32 -5.26256 1322.51 -3.31635L1323.58 -2.24375L1368.28 48.9885C1370.29 51.2926 1371.34 54.2739 1371.23 57.327C1371.11 60.38 1369.84 63.2759 1367.67 65.4264C1365.5 67.577 1362.6 68.8209 1359.54 68.9055C1356.49 68.9901 1353.52 67.9091 1351.23 65.882L1350.16 64.7974L1313.37 22.6551L1271.19 59.5008C1268.79 61.5984 1265.65 62.6564 1262.47 62.442C1259.29 62.2277 1256.32 60.7585 1254.22 58.3577L1254.23 58.3338Z" fill="#FF3C82"/>
<path d="M74.2487 77.7431L-88.9202 -5.51553C-91.6451 -6.91375 -93.7337 -9.29898 -94.76 -12.1845C-95.7863 -15.0701 -95.6729 -18.2385 -94.443 -21.0433C-93.213 -23.8482 -90.9592 -26.078 -88.1414 -27.2778C-85.3235 -28.4777 -82.1541 -28.5571 -79.2797 -27.5L-77.9923 -26.9311L85.1767 56.3275C87.9015 57.7257 89.9902 60.1109 91.0165 62.9965C92.0428 65.882 91.9294 69.0505 90.6994 71.8553C89.4695 74.6601 87.2156 76.8899 84.3978 78.0897C81.58 79.2896 78.4105 79.369 75.5361 78.3119L74.2487 77.7431ZM-18.2334 141.33L-62.9907 90.1059C-64.997 87.8018 -66.0511 84.8205 -65.9388 81.7674C-65.8266 78.7143 -64.5565 75.8184 -62.3864 73.6679C-60.2163 71.5174 -57.3091 70.2735 -54.2551 70.1889C-51.2011 70.1043 -48.2294 71.1853 -45.9436 73.2124L-44.883 74.2842L-8.03644 116.455L34.134 79.608C36.4346 77.5785 39.4239 76.5051 42.49 76.6074C45.5561 76.7098 48.4672 77.9801 50.6274 80.1585C52.7876 82.3368 54.0335 85.2585 54.1101 88.3254C54.1867 91.3923 53.0882 94.3724 51.0395 96.6559L49.9557 97.7158L-1.26861 142.473C-3.47371 144.4 -6.30599 145.455 -9.2341 145.442C-12.1622 145.429 -14.9849 144.348 -17.1727 142.402L-18.2334 141.33ZM-54.9191 -29.872C-56.8456 -32.0771 -57.9014 -34.9094 -57.8882 -37.8375C-57.8751 -40.7656 -56.7941 -43.5883 -54.8479 -45.7761L-53.7769 -46.8248L-2.53978 -91.5933C-0.334676 -93.5199 2.49761 -94.5756 5.42571 -94.5625C8.35382 -94.5494 11.1765 -93.4683 13.3643 -91.5221L14.437 -90.4495L59.1335 -39.2173C61.1398 -36.9132 62.1939 -33.9319 62.0817 -30.8788C61.9694 -27.8257 60.6993 -24.9298 58.5292 -22.7793C56.3592 -20.6288 53.4519 -19.3849 50.3979 -19.3003C47.3439 -19.2157 44.3723 -20.2967 42.0865 -22.3237L41.0146 -23.4083L4.22644 -65.5507L-37.9559 -28.705C-40.3574 -26.6074 -43.4936 -25.5494 -46.675 -25.7637C-49.8564 -25.9781 -52.8223 -27.4472 -54.9207 -29.848L-54.9191 -29.872Z" fill="#FF3C82"/>
<path d="M1156.83 150.684L993.664 67.4253C990.939 66.027 988.85 63.6418 987.824 60.7563C986.798 57.8707 986.911 54.7023 988.141 51.8975C989.371 49.0926 991.625 46.8628 994.442 45.663C997.26 44.4631 1000.43 44.3837 1003.3 45.4408L1004.59 46.0097L1167.76 129.268C1170.49 130.666 1172.57 133.052 1173.6 135.937C1174.63 138.823 1174.51 141.991 1173.28 144.796C1172.05 147.601 1169.8 149.831 1166.98 151.031C1164.16 152.23 1160.99 152.31 1158.12 151.253L1156.83 150.684ZM1064.35 214.271L1019.59 163.047C1017.59 160.743 1016.53 157.761 1016.64 154.708C1016.76 151.655 1018.03 148.759 1020.2 146.609C1022.37 144.458 1025.27 143.214 1028.33 143.13C1031.38 143.045 1034.35 144.126 1036.64 146.153L1037.7 147.225L1074.55 189.395L1116.72 152.549C1119.02 150.519 1122.01 149.446 1125.07 149.548C1128.14 149.651 1131.05 150.921 1133.21 153.099C1135.37 155.278 1136.62 158.199 1136.69 161.266C1136.77 164.333 1135.67 167.313 1133.62 169.597L1132.54 170.657L1081.32 215.414C1079.11 217.341 1076.28 218.396 1073.35 218.383C1070.42 218.37 1067.6 217.289 1065.41 215.343L1064.35 214.271ZM1027.66 43.0688C1025.74 40.8637 1024.68 38.0314 1024.7 35.1033C1024.71 32.1752 1025.79 29.3525 1027.74 27.1647L1028.81 26.116L1080.04 -18.6525C1082.25 -20.5791 1085.08 -21.6348 1088.01 -21.6217C1090.94 -21.6086 1093.76 -20.5275 1095.95 -18.5813L1097.02 -17.5087L1141.72 33.7235C1143.72 36.0276 1144.78 39.0089 1144.67 42.062C1144.55 45.1151 1143.28 48.011 1141.11 50.1615C1138.94 52.312 1136.04 53.5559 1132.98 53.6405C1129.93 53.7251 1126.96 52.6441 1124.67 50.6171L1123.6 49.5325L1086.81 7.39013L1044.63 44.2358C1042.23 46.3334 1039.09 47.3914 1035.91 47.1771C1032.73 46.9627 1029.76 45.4936 1027.66 43.0928L1027.66 43.0688Z" fill="#FF3C82"/>
<path d="M510.63 107.145L347.461 23.8864C344.737 22.4882 342.648 20.1029 341.622 17.2174C340.595 14.3318 340.709 11.1634 341.939 8.35857C343.169 5.55376 345.423 3.32395 348.24 2.12411C351.058 0.924253 354.228 0.844794 357.102 1.90196L358.389 2.47078L521.558 85.7294C524.283 87.1276 526.372 89.5128 527.398 92.3984C528.424 95.2839 528.311 98.4524 527.081 101.257C525.851 104.062 523.597 106.292 520.78 107.492C517.962 108.691 514.792 108.771 511.918 107.714L510.63 107.145ZM418.148 170.732L373.391 119.508C371.385 117.204 370.331 114.222 370.443 111.169C370.555 108.116 371.825 105.22 373.995 103.07C376.165 100.919 379.073 99.6754 382.127 99.5908C385.181 99.5062 388.152 100.587 390.438 102.614L391.499 103.686L428.345 145.856L470.516 109.01C472.816 106.98 475.806 105.907 478.872 106.009C481.938 106.112 484.849 107.382 487.009 109.56C489.169 111.739 490.415 114.66 490.492 117.727C490.568 120.794 489.47 123.774 487.421 126.058L486.337 127.118L435.113 171.875C432.908 173.802 430.076 174.857 427.148 174.844C424.22 174.831 421.397 173.75 419.209 171.804L418.148 170.732ZM381.463 -0.470078C379.536 -2.67518 378.48 -5.50747 378.493 -8.43559C378.507 -11.3637 379.588 -14.1864 381.534 -16.3742L382.605 -17.4229L433.842 -62.1914C436.047 -64.1179 438.879 -65.1737 441.807 -65.1606C444.736 -65.1474 447.558 -64.0664 449.746 -62.1202L450.819 -61.0476L495.515 -9.81534C497.522 -7.51127 498.576 -4.52995 498.463 -1.47688C498.351 1.57621 497.081 4.47209 494.911 6.62261C492.741 8.77313 489.834 10.017 486.78 10.1016C483.726 10.1863 480.754 9.10525 478.468 7.0782L477.396 5.9936L440.608 -36.1488L398.426 0.696928C396.024 2.79456 392.888 3.85254 389.707 3.63819C386.525 3.42384 383.559 1.95471 381.461 -0.446099L381.463 -0.470078Z" fill="#FF3C82"/>
<path d="M1593.21 180.086L1430.05 96.8272C1427.32 95.429 1425.23 93.0437 1424.21 90.1582C1423.18 87.2726 1423.29 84.1042 1424.52 81.2994C1425.75 78.4946 1428.01 76.2647 1430.82 75.0649C1433.64 73.865 1436.81 73.7856 1439.69 74.8428L1440.97 75.4116L1604.14 158.67C1606.87 160.068 1608.96 162.454 1609.98 165.339C1611.01 168.225 1610.89 171.393 1609.66 174.198C1608.43 177.003 1606.18 179.233 1603.36 180.432C1600.55 181.632 1597.38 181.712 1594.5 180.655L1593.21 180.086ZM1500.73 243.673L1455.97 192.449C1453.97 190.145 1452.91 187.163 1453.03 184.11C1453.14 181.057 1454.41 178.161 1456.58 176.011C1458.75 173.86 1461.66 172.616 1464.71 172.532C1467.76 172.447 1470.74 173.528 1473.02 175.555L1474.08 176.627L1510.93 218.797L1553.1 181.951C1555.4 179.921 1558.39 178.848 1561.46 178.95C1564.52 179.052 1567.43 180.323 1569.59 182.501C1571.75 184.68 1573 187.601 1573.08 190.668C1573.15 193.735 1572.05 196.715 1570 198.999L1568.92 200.059L1517.7 244.816C1515.49 246.742 1512.66 247.798 1509.73 247.785C1506.8 247.772 1503.98 246.691 1501.79 244.745L1500.73 243.673ZM1464.05 72.4707C1462.12 70.2656 1461.06 67.4333 1461.08 64.5052C1461.09 61.5771 1462.17 58.7544 1464.12 56.5666L1465.19 55.5179L1516.43 10.7494C1518.63 8.82285 1521.46 7.76712 1524.39 7.78024C1527.32 7.79335 1530.14 8.8744 1532.33 10.8206L1533.4 11.8932L1578.1 63.1255C1580.11 65.4295 1581.16 68.4108 1581.05 71.4639C1580.93 74.517 1579.66 77.4129 1577.49 79.5634C1575.32 81.7139 1572.42 82.9578 1569.36 83.0424C1566.31 83.1271 1563.34 82.046 1561.05 80.019L1559.98 78.9344L1523.19 36.792L1481.01 73.6377C1478.61 75.7354 1475.47 76.7933 1472.29 76.579C1469.11 76.3646 1466.14 74.8955 1464.04 72.4947L1464.05 72.4707Z" fill="#FF3C82"/>
<path d="M720.451 121.282L557.282 38.0234C554.557 36.6251 552.468 34.2399 551.442 31.3543C550.416 28.4688 550.529 25.3003 551.759 22.4955C552.989 19.6907 555.243 17.4609 558.061 16.2611C560.879 15.0612 564.048 14.9818 566.922 16.0389L568.21 16.6077L731.379 99.8663C734.104 101.265 736.192 103.65 737.219 106.535C738.245 109.421 738.131 112.589 736.902 115.394C735.672 118.199 733.418 120.429 730.6 121.629C727.782 122.828 724.613 122.908 721.738 121.851L720.451 121.282ZM627.969 184.869L583.211 133.645C581.205 131.341 580.151 128.359 580.263 125.306C580.376 122.253 581.646 119.357 583.816 117.207C585.986 115.056 588.893 113.812 591.947 113.728C595.001 113.643 597.973 114.724 600.258 116.751L601.319 117.823L638.166 159.993L680.336 123.147C682.637 121.117 685.626 120.044 688.692 120.146C691.758 120.249 694.669 121.519 696.83 123.697C698.99 125.876 700.236 128.797 700.312 131.864C700.389 134.931 699.29 137.911 697.242 140.195L696.158 141.255L644.934 186.012C642.728 187.939 639.896 188.994 636.968 188.981C634.04 188.968 631.217 187.887 629.029 185.941L627.969 184.869ZM591.283 13.6669C589.356 11.4618 588.301 8.62949 588.314 5.70137C588.327 2.77327 589.408 -0.0494505 591.354 -2.23721L592.425 -3.28589L643.662 -48.0545C645.867 -49.981 648.7 -51.0367 651.628 -51.0236C654.556 -51.0105 657.379 -49.9294 659.566 -47.9832L660.639 -46.9106L705.336 4.32163C707.342 6.62569 708.396 9.60702 708.284 12.6601C708.172 15.7132 706.901 18.6091 704.731 20.7596C702.561 22.9101 699.654 24.154 696.6 24.2386C693.546 24.3232 690.574 23.2422 688.289 21.2152L687.217 20.1306L650.429 -22.0118L608.246 14.8339C605.845 16.9315 602.708 17.9895 599.527 17.7751C596.346 17.5608 593.38 16.0917 591.281 13.6909L591.283 13.6669Z" fill="#FF3C82"/>
<path d="M1803.03 194.223L1639.87 110.964C1637.14 109.566 1635.05 107.181 1634.03 104.295C1633 101.41 1633.11 98.2411 1634.34 95.4363C1635.57 92.6315 1637.83 90.4017 1640.64 89.2019C1643.46 88.002 1646.63 87.9226 1649.51 88.9797L1650.79 89.5485L1813.96 172.807C1816.69 174.205 1818.78 176.591 1819.8 179.476C1820.83 182.362 1820.72 185.53 1819.49 188.335C1818.26 191.14 1816 193.37 1813.18 194.569C1810.37 195.769 1807.2 195.849 1804.32 194.792L1803.03 194.223ZM1710.55 257.81L1665.8 206.586C1663.79 204.282 1662.74 201.3 1662.85 198.247C1662.96 195.194 1664.23 192.298 1666.4 190.148C1668.57 187.997 1671.48 186.753 1674.53 186.669C1677.59 186.584 1680.56 187.665 1682.84 189.692L1683.9 190.764L1720.75 232.934L1762.92 196.088C1765.22 194.058 1768.21 192.985 1771.28 193.087C1774.34 193.189 1777.25 194.46 1779.41 196.638C1781.57 198.817 1782.82 201.738 1782.9 204.805C1782.97 207.872 1781.87 210.852 1779.83 213.136L1778.74 214.196L1727.52 258.953C1725.31 260.879 1722.48 261.935 1719.55 261.922C1716.62 261.909 1713.8 260.828 1711.61 258.882L1710.55 257.81ZM1673.87 86.6077C1671.94 84.4026 1670.88 81.5703 1670.9 78.6422C1670.91 75.7141 1671.99 72.8913 1673.94 70.7036L1675.01 69.6549L1726.25 24.8863C1728.45 22.9598 1731.28 21.9041 1734.21 21.9172C1737.14 21.9303 1739.96 23.0114 1742.15 24.9576L1743.22 26.0302L1787.92 77.2624C1789.93 79.5665 1790.98 82.5478 1790.87 85.6009C1790.76 88.654 1789.49 91.5499 1787.32 93.7004C1785.15 95.8509 1782.24 97.0948 1779.18 97.1794C1776.13 97.264 1773.16 96.183 1770.87 94.156L1769.8 93.0714L1733.01 50.929L1690.83 87.7747C1688.43 89.8723 1685.29 90.9303 1682.11 90.7159C1678.93 90.5016 1675.96 89.0325 1673.87 86.6317L1673.87 86.6077Z" fill="#FF3C82"/>
<path d="M930.271 135.419L767.102 52.1603C764.377 50.7621 762.289 48.3769 761.263 45.4913C760.236 42.6057 760.35 39.4373 761.58 36.6325C762.81 33.8277 765.063 31.5979 767.881 30.398C770.699 29.1982 773.868 29.1187 776.743 30.1759L778.03 30.7447L941.199 114.003C943.924 115.402 946.013 117.787 947.039 120.672C948.065 123.558 947.952 126.726 946.722 129.531C945.492 132.336 943.238 134.566 940.42 135.766C937.603 136.965 934.433 137.045 931.559 135.988L930.271 135.419ZM837.789 199.006L793.032 147.782C791.026 145.478 789.971 142.496 790.084 139.443C790.196 136.39 791.466 133.494 793.636 131.344C795.806 129.193 798.713 127.949 801.767 127.865C804.821 127.78 807.793 128.861 810.079 130.888L811.14 131.96L847.986 174.13L890.157 137.284C892.457 135.254 895.446 134.181 898.513 134.283C901.579 134.386 904.49 135.656 906.65 137.834C908.81 140.013 910.056 142.934 910.133 146.001C910.209 149.068 909.111 152.048 907.062 154.332L905.978 155.392L854.754 200.149C852.549 202.076 849.717 203.131 846.788 203.118C843.86 203.105 841.038 202.024 838.85 200.078L837.789 199.006ZM801.103 27.8038C799.177 25.5987 798.121 22.7665 798.134 19.8383C798.147 16.9102 799.228 14.0875 801.175 11.8998L802.246 10.8511L853.483 -33.9175C855.688 -35.844 858.52 -36.8998 861.448 -36.8866C864.376 -36.8735 867.199 -35.7925 869.387 -33.8463L870.46 -32.7737L915.156 18.4586C917.162 20.7627 918.216 23.744 918.104 26.7971C917.992 29.8501 916.722 32.746 914.552 34.8965C912.382 37.0471 909.474 38.291 906.42 38.3756C903.366 38.4602 900.395 37.3792 898.109 35.3521L897.037 34.2675L860.249 -7.87483L818.067 28.9709C815.665 31.0685 812.529 32.1265 809.348 31.9121C806.166 31.6978 803.2 30.2286 801.102 27.8278L801.103 27.8038Z" fill="#FF3C82"/>
<path d="M1993.88 207.081L1830.71 123.823C1827.99 122.425 1825.9 120.039 1824.87 117.154C1823.85 114.268 1823.96 111.1 1825.19 108.295C1826.42 105.49 1828.67 103.26 1831.49 102.061C1834.31 100.861 1837.48 100.781 1840.35 101.838L1841.64 102.407L2004.81 185.666C2007.53 187.064 2009.62 189.449 2010.65 192.335C2011.68 195.22 2011.56 198.389 2010.33 201.194C2009.1 203.998 2006.85 206.228 2004.03 207.428C2001.21 208.628 1998.04 208.707 1995.17 207.65L1993.88 207.081ZM1901.4 270.668L1856.64 219.444C1854.64 217.14 1853.58 214.159 1853.69 211.106C1853.81 208.053 1855.08 205.157 1857.25 203.006C1859.42 200.856 1862.32 199.612 1865.38 199.527C1868.43 199.443 1871.4 200.524 1873.69 202.551L1874.75 203.622L1911.6 245.793L1953.77 208.946C1956.07 206.917 1959.06 205.843 1962.12 205.946C1965.19 206.048 1968.1 207.318 1970.26 209.497C1972.42 211.675 1973.67 214.597 1973.74 217.664C1973.82 220.731 1972.72 223.711 1970.67 225.994L1969.59 227.054L1918.36 271.812C1916.16 273.738 1913.33 274.794 1910.4 274.781C1907.47 274.768 1904.65 273.686 1902.46 271.74L1901.4 270.668ZM1864.71 99.4663C1862.79 97.2612 1861.73 94.4289 1861.75 91.5008C1861.76 88.5727 1862.84 85.75 1864.79 83.5622L1865.86 82.5135L1917.09 37.745C1919.3 35.8185 1922.13 34.7627 1925.06 34.7758C1927.99 34.789 1930.81 35.87 1933 37.8162L1934.07 38.8888L1978.77 90.1211C1980.77 92.4251 1981.83 95.4065 1981.71 98.4595C1981.6 101.513 1980.33 104.408 1978.16 106.559C1975.99 108.71 1973.09 109.953 1970.03 110.038C1966.98 110.123 1964.01 109.042 1961.72 107.015L1960.65 105.93L1923.86 63.7876L1881.68 100.633C1879.28 102.731 1876.14 103.789 1872.96 103.575C1869.78 103.36 1866.81 101.891 1864.71 99.4903L1864.71 99.4663Z" fill="#FF3C82"/>
<path d="M1974.48 495.026L1811.31 411.768C1808.59 410.37 1806.5 407.984 1805.47 405.099C1804.45 402.213 1804.56 399.045 1805.79 396.24C1807.02 393.435 1809.27 391.205 1812.09 390.006C1814.91 388.806 1818.08 388.726 1820.95 389.783L1822.24 390.352L1985.41 473.611C1988.13 475.009 1990.22 477.394 1991.25 480.28C1992.28 483.165 1992.16 486.334 1990.93 489.139C1989.7 491.943 1987.45 494.173 1984.63 495.373C1981.81 496.573 1978.64 496.652 1975.77 495.595L1974.48 495.026ZM1882 558.614L1837.24 507.389C1835.24 505.085 1834.18 502.104 1834.29 499.051C1834.41 495.998 1835.68 493.102 1837.85 490.951C1840.02 488.801 1842.92 487.557 1845.98 487.472C1849.03 487.388 1852 488.469 1854.29 490.496L1855.35 491.568L1892.2 533.738L1934.37 496.891C1936.67 494.862 1939.66 493.788 1942.72 493.891C1945.79 493.993 1948.7 495.263 1950.86 497.442C1953.02 499.62 1954.27 502.542 1954.34 505.609C1954.42 508.676 1953.32 511.656 1951.27 513.939L1950.19 514.999L1898.96 559.757C1896.76 561.683 1893.93 562.739 1891 562.726C1888.07 562.713 1885.25 561.632 1883.06 559.685L1882 558.614ZM1845.31 387.411C1843.39 385.206 1842.33 382.374 1842.34 379.446C1842.36 376.518 1843.44 373.695 1845.38 371.507L1846.46 370.459L1897.69 325.69C1899.9 323.764 1902.73 322.708 1905.66 322.721C1908.59 322.734 1911.41 323.815 1913.6 325.761L1914.67 326.834L1959.37 378.066C1961.37 380.37 1962.43 383.352 1962.31 386.405C1962.2 389.458 1960.93 392.354 1958.76 394.504C1956.59 396.655 1953.68 397.898 1950.63 397.983C1947.58 398.068 1944.6 396.987 1942.32 394.96L1941.25 393.875L1904.46 351.733L1862.28 388.578C1859.88 390.676 1856.74 391.734 1853.56 391.52C1850.38 391.305 1847.41 389.836 1845.31 387.435L1845.31 387.411Z" fill="#FF3C82"/>
<path d="M242.608 956.843L79.4389 873.584C76.7141 872.186 74.6254 869.801 73.5991 866.915C72.5728 864.03 72.6862 860.861 73.9162 858.057C75.1461 855.252 77.4 853.022 80.2178 851.822C83.0356 850.622 86.2051 850.543 89.0795 851.6L90.3669 852.169L253.536 935.427C256.261 936.826 258.349 939.211 259.376 942.096C260.402 944.982 260.289 948.15 259.059 950.955C257.829 953.76 255.575 955.99 252.757 957.19C249.939 958.389 246.77 958.469 243.895 957.412L242.608 956.843ZM150.126 1020.43L105.368 969.206C103.362 966.902 102.308 963.92 102.42 960.867C102.533 957.814 103.803 954.918 105.973 952.768C108.143 950.617 111.05 949.373 114.104 949.289C117.158 949.204 120.13 950.285 122.415 952.312L123.476 953.384L160.323 995.554L202.493 958.708C204.794 956.678 207.783 955.605 210.849 955.707C213.915 955.81 216.826 957.08 218.987 959.258C221.147 961.437 222.393 964.358 222.469 967.425C222.546 970.492 221.447 973.472 219.399 975.756L218.315 976.816L167.091 1021.57C164.885 1023.5 162.053 1024.56 159.125 1024.54C156.197 1024.53 153.374 1023.45 151.186 1021.5L150.126 1020.43ZM113.44 849.228C111.514 847.023 110.458 844.191 110.471 841.262C110.484 838.334 111.565 835.512 113.511 833.324L114.582 832.275L165.819 787.507C168.024 785.58 170.857 784.524 173.785 784.537C176.713 784.551 179.536 785.632 181.723 787.578L182.796 788.65L227.493 839.883C229.499 842.187 230.553 845.168 230.441 848.221C230.329 851.274 229.058 854.17 226.888 856.321C224.718 858.471 221.811 859.715 218.757 859.8C215.703 859.884 212.731 858.803 210.446 856.776L209.374 855.692L172.586 813.549L130.403 850.395C128.002 852.493 124.865 853.551 121.684 853.336C118.503 853.122 115.537 851.653 113.438 849.252L113.44 849.228Z" fill="#FF3C82"/>
<path d="M1325.19 1029.78L1162.02 946.525C1159.3 945.127 1157.21 942.742 1156.18 939.856C1155.16 936.971 1155.27 933.802 1156.5 930.997C1157.73 928.193 1159.98 925.963 1162.8 924.763C1165.62 923.563 1168.79 923.484 1171.66 924.541L1172.95 925.11L1336.12 1008.37C1338.84 1009.77 1340.93 1012.15 1341.96 1015.04C1342.99 1017.92 1342.87 1021.09 1341.64 1023.9C1340.41 1026.7 1338.16 1028.93 1335.34 1030.13C1332.52 1031.33 1329.35 1031.41 1326.48 1030.35L1325.19 1029.78ZM1232.71 1093.37L1187.95 1042.15C1185.95 1039.84 1184.89 1036.86 1185 1033.81C1185.12 1030.76 1186.39 1027.86 1188.56 1025.71C1190.73 1023.56 1193.63 1022.31 1196.69 1022.23C1199.74 1022.15 1202.71 1023.23 1205 1025.25L1206.06 1026.32L1242.91 1068.5L1285.08 1031.65C1287.38 1029.62 1290.37 1028.55 1293.43 1028.65C1296.5 1028.75 1299.41 1030.02 1301.57 1032.2C1303.73 1034.38 1304.98 1037.3 1305.05 1040.37C1305.13 1043.43 1304.03 1046.41 1301.98 1048.7L1300.9 1049.76L1249.67 1094.51C1247.47 1096.44 1244.64 1097.5 1241.71 1097.48C1238.78 1097.47 1235.96 1096.39 1233.77 1094.44L1232.71 1093.37ZM1196.02 922.169C1194.1 919.964 1193.04 917.131 1193.05 914.203C1193.07 911.275 1194.15 908.453 1196.1 906.265L1197.17 905.216L1248.4 860.447C1250.61 858.521 1253.44 857.465 1256.37 857.478C1259.3 857.491 1262.12 858.573 1264.31 860.519L1265.38 861.591L1310.08 912.824C1312.08 915.128 1313.14 918.109 1313.02 921.162C1312.91 924.215 1311.64 927.111 1309.47 929.262C1307.3 931.412 1304.39 932.656 1301.34 932.741C1298.29 932.825 1295.32 931.744 1293.03 929.717L1291.96 928.633L1255.17 886.49L1212.99 923.336C1210.59 925.433 1207.45 926.491 1204.27 926.277C1201.09 926.063 1198.12 924.594 1196.02 922.193L1196.02 922.169Z" fill="#FF3C82"/>
<path d="M16.0464 941.578L-147.122 858.319C-149.847 856.921 -151.936 854.536 -152.962 851.65C-153.989 848.765 -153.875 845.596 -152.645 842.792C-151.415 839.987 -149.161 837.757 -146.344 836.557C-143.526 835.357 -140.356 835.278 -137.482 836.335L-136.195 836.904L26.9744 920.162C29.6993 921.561 31.7879 923.946 32.8142 926.831C33.8405 929.717 33.7271 932.885 32.4972 935.69C31.2672 938.495 29.0134 940.725 26.1956 941.925C23.3777 943.125 20.2083 943.204 17.3339 942.147L16.0464 941.578ZM-76.4356 1005.17L-121.193 953.941C-123.199 951.637 -124.253 948.656 -124.141 945.602C-124.029 942.549 -122.759 939.653 -120.589 937.503C-118.419 935.352 -115.511 934.109 -112.457 934.024C-109.403 933.939 -106.432 935.02 -104.146 937.047L-103.085 938.119L-66.2387 980.29L-24.0683 943.443C-21.7677 941.414 -18.7784 940.34 -15.7123 940.442C-12.6461 940.545 -9.73505 941.815 -7.57487 943.993C-5.4147 946.172 -4.1688 949.093 -4.09219 952.16C-4.01559 955.227 -5.11406 958.207 -7.1628 960.491L-8.24658 961.551L-59.4709 1006.31C-61.676 1008.23 -64.5083 1009.29 -67.4364 1009.28C-70.3645 1009.26 -73.1872 1008.18 -75.3749 1006.24L-76.4356 1005.17ZM-113.121 833.963C-115.048 831.758 -116.104 828.926 -116.091 825.998C-116.077 823.069 -114.996 820.247 -113.05 818.059L-111.979 817.01L-60.742 772.242C-58.5369 770.315 -55.7047 769.259 -52.7766 769.273C-49.8485 769.286 -47.0257 770.367 -44.838 772.313L-43.7653 773.386L0.931276 824.618C2.93756 826.922 3.99165 829.903 3.8794 832.956C3.76715 836.009 2.497 838.905 0.326942 841.056C-1.84312 843.206 -4.75039 844.45 -7.80435 844.535C-10.8583 844.619 -13.83 843.538 -16.1158 841.511L-17.1877 840.427L-53.9758 798.284L-96.1582 835.13C-98.5597 837.228 -101.696 838.286 -104.877 838.071C-108.059 837.857 -111.025 836.388 -113.123 833.987L-113.121 833.963Z" fill="#FF3C82"/>
<path d="M1098.63 1014.52L935.461 931.26C932.737 929.862 930.648 927.477 929.622 924.591C928.595 921.706 928.709 918.537 929.939 915.732C931.169 912.928 933.422 910.698 936.24 909.498C939.058 908.298 942.227 908.219 945.102 909.276L946.389 909.845L1109.56 993.103C1112.28 994.501 1114.37 996.887 1115.4 999.772C1116.42 1002.66 1116.31 1005.83 1115.08 1008.63C1113.85 1011.44 1111.6 1013.67 1108.78 1014.87C1105.96 1016.07 1102.79 1016.14 1099.92 1015.09L1098.63 1014.52ZM1006.15 1078.11L961.391 1026.88C959.385 1024.58 958.33 1021.6 958.443 1018.54C958.555 1015.49 959.825 1012.59 961.995 1010.44C964.165 1008.29 967.073 1007.05 970.126 1006.96C973.18 1006.88 976.152 1007.96 978.438 1009.99L979.499 1011.06L1016.35 1053.23L1058.52 1016.38C1060.82 1014.35 1063.81 1013.28 1066.87 1013.38C1069.94 1013.49 1072.85 1014.76 1075.01 1016.93C1077.17 1019.11 1078.42 1022.03 1078.49 1025.1C1078.57 1028.17 1077.47 1031.15 1075.42 1033.43L1074.34 1034.49L1023.11 1079.25C1020.91 1081.18 1018.08 1082.23 1015.15 1082.22C1012.22 1082.21 1009.4 1081.12 1007.21 1079.18L1006.15 1078.11ZM969.462 906.904C967.536 904.699 966.48 901.866 966.493 898.938C966.506 896.01 967.588 893.187 969.534 891L970.605 889.951L1021.84 845.182C1024.05 843.256 1026.88 842.2 1029.81 842.213C1032.74 842.226 1035.56 843.308 1037.75 845.254L1038.82 846.326L1083.52 897.559C1085.52 899.863 1086.58 902.844 1086.46 905.897C1086.35 908.95 1085.08 911.846 1082.91 913.997C1080.74 916.147 1077.83 917.391 1074.78 917.476C1071.73 917.56 1068.75 916.479 1066.47 914.452L1065.4 913.368L1028.61 871.225L986.426 908.071C984.024 910.168 980.888 911.226 977.707 911.012C974.525 910.798 971.559 909.329 969.461 906.928L969.462 906.904Z" fill="#FF3C82"/>
<path d="M452.428 970.98L289.259 887.721C286.534 886.323 284.446 883.938 283.419 881.052C282.393 878.167 282.507 874.998 283.737 872.194C284.967 869.389 287.22 867.159 290.038 865.959C292.856 864.759 296.025 864.68 298.9 865.737L300.187 866.306L463.356 949.564C466.081 950.963 468.17 953.348 469.196 956.233C470.222 959.119 470.109 962.287 468.879 965.092C467.649 967.897 465.395 970.127 462.577 971.327C459.76 972.526 456.59 972.606 453.716 971.549L452.428 970.98ZM359.946 1034.57L315.189 983.343C313.182 981.039 312.128 978.057 312.241 975.004C312.353 971.951 313.623 969.055 315.793 966.905C317.963 964.754 320.87 963.51 323.924 963.426C326.978 963.341 329.95 964.422 332.236 966.449L333.297 967.521L370.143 1009.69L412.313 972.845C414.614 970.815 417.603 969.742 420.669 969.844C423.736 969.947 426.647 971.217 428.807 973.395C430.967 975.574 432.213 978.495 432.29 981.562C432.366 984.629 431.268 987.609 429.219 989.893L428.135 990.953L376.911 1035.71C374.706 1037.64 371.874 1038.69 368.945 1038.68C366.017 1038.67 363.195 1037.59 361.007 1035.64L359.946 1034.57ZM323.26 863.365C321.334 861.16 320.278 858.327 320.291 855.399C320.304 852.471 321.385 849.649 323.332 847.461L324.403 846.412L375.64 801.644C377.845 799.717 380.677 798.661 383.605 798.674C386.533 798.688 389.356 799.769 391.544 801.715L392.616 802.787L437.313 854.02C439.319 856.324 440.373 859.305 440.261 862.358C440.149 865.411 438.879 868.307 436.709 870.458C434.539 872.608 431.631 873.852 428.577 873.937C425.523 874.021 422.552 872.94 420.266 870.913L419.194 869.829L382.406 827.686L340.224 864.532C337.822 866.63 334.686 867.687 331.505 867.473C328.323 867.259 325.357 865.79 323.259 863.389L323.26 863.365Z" fill="#FF3C82"/>
<path d="M1535.01 1043.92L1371.84 960.662C1369.12 959.264 1367.03 956.879 1366 953.993C1364.98 951.108 1365.09 947.939 1366.32 945.134C1367.55 942.33 1369.8 940.1 1372.62 938.9C1375.44 937.7 1378.61 937.621 1381.48 938.678L1382.77 939.247L1545.94 1022.51C1548.66 1023.9 1550.75 1026.29 1551.78 1029.17C1552.81 1032.06 1552.69 1035.23 1551.46 1038.03C1550.23 1040.84 1547.98 1043.07 1545.16 1044.27C1542.34 1045.47 1539.17 1045.55 1536.3 1044.49L1535.01 1043.92ZM1442.53 1107.51L1397.77 1056.28C1395.77 1053.98 1394.71 1051 1394.82 1047.95C1394.94 1044.89 1396.21 1042 1398.38 1039.85C1400.55 1037.7 1403.45 1036.45 1406.51 1036.37C1409.56 1036.28 1412.53 1037.36 1414.82 1039.39L1415.88 1040.46L1452.73 1082.63L1494.9 1045.79C1497.2 1043.76 1500.19 1042.68 1503.25 1042.79C1506.32 1042.89 1509.23 1044.16 1511.39 1046.34C1513.55 1048.51 1514.8 1051.44 1514.87 1054.5C1514.95 1057.57 1513.85 1060.55 1511.8 1062.83L1510.72 1063.89L1459.49 1108.65C1457.29 1110.58 1454.46 1111.63 1451.53 1111.62C1448.6 1111.61 1445.78 1110.53 1443.59 1108.58L1442.53 1107.51ZM1405.84 936.306C1403.92 934.101 1402.86 931.268 1402.88 928.34C1402.89 925.412 1403.97 922.589 1405.92 920.402L1406.99 919.353L1458.22 874.584C1460.43 872.658 1463.26 871.602 1466.19 871.615C1469.12 871.628 1471.94 872.709 1474.13 874.656L1475.2 875.728L1519.9 926.961C1521.9 929.265 1522.96 932.246 1522.84 935.299C1522.73 938.352 1521.46 941.248 1519.29 943.398C1517.12 945.549 1514.22 946.793 1511.16 946.878C1508.11 946.962 1505.14 945.881 1502.85 943.854L1501.78 942.769L1464.99 900.627L1422.81 937.473C1420.41 939.57 1417.27 940.628 1414.09 940.414C1410.91 940.2 1407.94 938.731 1405.84 936.33L1405.84 936.306Z" fill="#FF3C82"/>
<path d="M662.249 985.117L499.08 901.858C496.355 900.46 494.266 898.075 493.24 895.189C492.214 892.304 492.327 889.135 493.557 886.331C494.787 883.526 497.041 881.296 499.858 880.096C502.676 878.896 505.846 878.817 508.72 879.874L510.008 880.443L673.177 963.701C675.901 965.1 677.99 967.485 679.016 970.37C680.043 973.256 679.929 976.424 678.699 979.229C677.469 982.034 675.215 984.264 672.398 985.464C669.58 986.664 666.41 986.743 663.536 985.686L662.249 985.117ZM569.766 1048.7L525.009 997.48C523.003 995.176 521.949 992.194 522.061 989.141C522.173 986.088 523.443 983.192 525.613 981.042C527.784 978.891 530.691 977.647 533.745 977.563C536.799 977.478 539.77 978.559 542.056 980.586L543.117 981.658L579.963 1023.83L622.134 986.982C624.434 984.953 627.424 983.879 630.49 983.981C633.556 984.084 636.467 985.354 638.627 987.532C640.787 989.711 642.033 992.632 642.11 995.699C642.187 998.766 641.088 1001.75 639.039 1004.03L637.956 1005.09L586.731 1049.85C584.526 1051.77 581.694 1052.83 578.766 1052.82C575.838 1052.8 573.015 1051.72 570.827 1049.78L569.766 1048.7ZM533.081 877.502C531.154 875.297 530.098 872.465 530.112 869.536C530.125 866.608 531.206 863.786 533.152 861.598L534.223 860.549L585.46 815.781C587.665 813.854 590.497 812.798 593.426 812.811C596.354 812.825 599.176 813.906 601.364 815.852L602.437 816.924L647.133 868.157C649.14 870.461 650.194 873.442 650.082 876.495C649.969 879.548 648.699 882.444 646.529 884.595C644.359 886.745 641.452 887.989 638.398 888.074C635.344 888.158 632.372 887.077 630.086 885.05L629.014 883.966L592.226 841.823L550.044 878.669C547.642 880.767 544.506 881.825 541.325 881.61C538.143 881.396 535.178 879.927 533.079 877.526L533.081 877.502Z" fill="#FF3C82"/>
<path d="M1744.83 1058.06L1581.66 974.799C1578.94 973.401 1576.85 971.016 1575.82 968.13C1574.8 965.245 1574.91 962.076 1576.14 959.271C1577.37 956.467 1579.62 954.237 1582.44 953.037C1585.26 951.837 1588.43 951.758 1591.3 952.815L1592.59 953.384L1755.76 1036.64C1758.49 1038.04 1760.57 1040.43 1761.6 1043.31C1762.63 1046.2 1762.51 1049.37 1761.28 1052.17C1760.05 1054.97 1757.8 1057.2 1754.98 1058.4C1752.16 1059.6 1748.99 1059.68 1746.12 1058.63L1744.83 1058.06ZM1652.35 1121.64L1607.59 1070.42C1605.59 1068.12 1604.53 1065.14 1604.65 1062.08C1604.76 1059.03 1606.03 1056.13 1608.2 1053.98C1610.37 1051.83 1613.27 1050.59 1616.33 1050.5C1619.38 1050.42 1622.35 1051.5 1624.64 1053.53L1625.7 1054.6L1662.55 1096.77L1704.72 1059.92C1707.02 1057.89 1710.01 1056.82 1713.07 1056.92C1716.14 1057.02 1719.05 1058.29 1721.21 1060.47C1723.37 1062.65 1724.62 1065.57 1724.69 1068.64C1724.77 1071.71 1723.67 1074.69 1721.62 1076.97L1720.54 1078.03L1669.32 1122.79C1667.11 1124.71 1664.28 1125.77 1661.35 1125.76C1658.42 1125.74 1655.6 1124.66 1653.41 1122.72L1652.35 1121.64ZM1615.66 950.443C1613.74 948.238 1612.68 945.405 1612.7 942.477C1612.71 939.549 1613.79 936.726 1615.74 934.539L1616.81 933.49L1668.04 888.721C1670.25 886.795 1673.08 885.739 1676.01 885.752C1678.94 885.765 1681.76 886.846 1683.95 888.793L1685.02 889.865L1729.72 941.098C1731.72 943.402 1732.78 946.383 1732.67 949.436C1732.55 952.489 1731.28 955.385 1729.11 957.535C1726.94 959.686 1724.04 960.93 1720.98 961.014C1717.93 961.099 1714.96 960.018 1712.67 957.991L1711.6 956.906L1674.81 914.764L1632.63 951.61C1630.23 953.707 1627.09 954.765 1623.91 954.551C1620.73 954.337 1617.76 952.868 1615.66 950.467L1615.66 950.443Z" fill="#FF3C82"/>
<path d="M872.069 999.254L708.9 915.995C706.175 914.597 704.087 912.212 703.06 909.326C702.034 906.441 702.147 903.272 703.377 900.468C704.607 897.663 706.861 895.433 709.679 894.233C712.497 893.033 715.666 892.954 718.541 894.011L719.828 894.58L882.997 977.838C885.722 979.237 887.81 981.622 888.837 984.507C889.863 987.393 889.75 990.561 888.52 993.366C887.29 996.171 885.036 998.401 882.218 999.601C879.4 1000.8 876.231 1000.88 873.356 999.823L872.069 999.254ZM779.587 1062.84L734.83 1011.62C732.823 1009.31 731.769 1006.33 731.881 1003.28C731.994 1000.23 733.264 997.329 735.434 995.179C737.604 993.028 740.511 991.784 743.565 991.7C746.619 991.615 749.591 992.696 751.877 994.723L752.937 995.795L789.784 1037.97L831.954 1001.12C834.255 999.089 837.244 998.016 840.31 998.118C843.376 998.221 846.288 999.491 848.448 1001.67C850.608 1003.85 851.854 1006.77 851.93 1009.84C852.007 1012.9 850.908 1015.88 848.86 1018.17L847.776 1019.23L796.552 1063.98C794.347 1065.91 791.514 1066.97 788.586 1066.95C785.658 1066.94 782.835 1065.86 780.648 1063.91L779.587 1062.84ZM742.901 891.639C740.975 889.434 739.919 886.602 739.932 883.673C739.945 880.745 741.026 877.923 742.972 875.735L744.043 874.686L795.281 829.918C797.486 827.991 800.318 826.935 803.246 826.948C806.174 826.962 808.997 828.043 811.185 829.989L812.257 831.061L856.954 882.294C858.96 884.598 860.014 887.579 859.902 890.632C859.79 893.685 858.52 896.581 856.349 898.732C854.179 900.882 851.272 902.126 848.218 902.211C845.164 902.295 842.193 901.214 839.907 899.187L838.835 898.103L802.047 855.96L759.864 892.806C757.463 894.904 754.327 895.962 751.145 895.747C747.964 895.533 744.998 894.064 742.9 891.663L742.901 891.639Z" fill="#FF3C82"/>
<path d="M262.009 668.898L98.8397 585.639C96.1148 584.241 94.0262 581.856 92.9999 578.97C91.9736 576.085 92.087 572.916 93.3169 570.112C94.5469 567.307 96.8007 565.077 99.6185 563.877C102.436 562.677 105.606 562.598 108.48 563.655L109.768 564.224L272.937 647.482C275.661 648.881 277.75 651.266 278.776 654.151C279.803 657.037 279.689 660.205 278.459 663.01C277.229 665.815 274.976 668.045 272.158 669.245C269.34 670.445 266.17 670.524 263.296 669.467L262.009 668.898ZM169.527 732.485L124.769 681.261C122.763 678.957 121.709 675.975 121.821 672.922C121.933 669.869 123.203 666.973 125.373 664.823C127.544 662.672 130.451 661.428 133.505 661.344C136.559 661.259 139.53 662.34 141.816 664.367L142.877 665.439L179.723 707.61L221.894 670.763C224.194 668.734 227.184 667.66 230.25 667.762C233.316 667.865 236.227 669.135 238.387 671.313C240.547 673.492 241.793 676.413 241.87 679.48C241.947 682.547 240.848 685.527 238.799 687.811L237.716 688.871L186.491 733.628C184.286 735.555 181.454 736.61 178.526 736.597C175.598 736.584 172.775 735.503 170.587 733.557L169.527 732.485ZM132.841 561.283C130.914 559.078 129.859 556.246 129.872 553.317C129.885 550.389 130.966 547.567 132.912 545.379L133.983 544.33L185.22 499.562C187.425 497.635 190.257 496.579 193.186 496.592C196.114 496.606 198.936 497.687 201.124 499.633L202.197 500.705L246.893 551.938C248.9 554.242 249.954 557.223 249.842 560.276C249.729 563.329 248.459 566.225 246.289 568.376C244.119 570.526 241.212 571.77 238.158 571.855C235.104 571.939 232.132 570.858 229.846 568.831L228.774 567.747L191.986 525.604L149.804 562.45C147.402 564.548 144.266 565.606 141.085 565.391C137.904 565.177 134.938 563.708 132.839 561.307L132.841 561.283Z" fill="#FF3C82"/>
<path d="M1344.59 741.839L1181.42 658.58C1178.7 657.182 1176.61 654.797 1175.58 651.911C1174.56 649.026 1174.67 645.857 1175.9 643.053C1177.13 640.248 1179.38 638.018 1182.2 636.818C1185.02 635.618 1188.19 635.539 1191.06 636.596L1192.35 637.165L1355.52 720.423C1358.25 721.822 1360.33 724.207 1361.36 727.092C1362.39 729.978 1362.27 733.146 1361.04 735.951C1359.81 738.756 1357.56 740.986 1354.74 742.186C1351.92 743.385 1348.75 743.465 1345.88 742.408L1344.59 741.839ZM1252.11 805.426L1207.35 754.202C1205.35 751.898 1204.29 748.916 1204.4 745.863C1204.52 742.81 1205.79 739.914 1207.96 737.764C1210.13 735.613 1213.03 734.369 1216.09 734.285C1219.14 734.2 1222.11 735.281 1224.4 737.308L1225.46 738.38L1262.31 780.55L1304.48 743.704C1306.78 741.674 1309.77 740.601 1312.83 740.703C1315.9 740.806 1318.81 742.076 1320.97 744.254C1323.13 746.433 1324.38 749.354 1324.45 752.421C1324.53 755.488 1323.43 758.468 1321.38 760.752L1320.3 761.812L1269.08 806.569C1266.87 808.496 1264.04 809.551 1261.11 809.538C1258.18 809.525 1255.36 808.444 1253.17 806.498L1252.11 805.426ZM1215.42 634.224C1213.5 632.019 1212.44 629.187 1212.46 626.258C1212.47 623.33 1213.55 620.508 1215.5 618.32L1216.57 617.271L1267.8 572.503C1270.01 570.576 1272.84 569.52 1275.77 569.533C1278.7 569.547 1281.52 570.628 1283.71 572.574L1284.78 573.646L1329.48 624.879C1331.48 627.183 1332.54 630.164 1332.43 633.217C1332.31 636.27 1331.04 639.166 1328.87 641.317C1326.7 643.467 1323.8 644.711 1320.74 644.796C1317.69 644.88 1314.72 643.799 1312.43 641.772L1311.36 640.688L1274.57 598.545L1232.39 635.391C1229.99 637.489 1226.85 638.547 1223.67 638.332C1220.49 638.118 1217.52 636.649 1215.42 634.248L1215.42 634.224Z" fill="#FF3C82"/>
<path d="M35.4472 653.633L-127.722 570.375C-130.447 568.976 -132.535 566.591 -133.562 563.706C-134.588 560.82 -134.474 557.652 -133.244 554.847C-132.015 552.042 -129.761 549.812 -126.943 548.612C-124.125 547.412 -120.956 547.333 -118.081 548.39L-116.794 548.959L46.3752 632.218C49.1 633.616 51.1886 636.001 52.2149 638.887C53.2413 641.772 53.1279 644.941 51.8979 647.745C50.668 650.55 48.4141 652.78 45.5963 653.98C42.7785 655.18 39.609 655.259 36.7346 654.202L35.4472 653.633ZM-57.0349 717.22L-101.792 665.996C-103.799 663.692 -104.853 660.711 -104.74 657.657C-104.628 654.604 -103.358 651.709 -101.188 649.558C-99.0178 647.407 -96.1106 646.164 -93.0566 646.079C-90.0026 645.994 -87.031 647.075 -84.7452 649.102L-83.6845 650.174L-46.838 692.345L-4.66756 655.498C-2.36695 653.469 0.622354 652.395 3.68848 652.497C6.75462 652.6 9.66571 653.87 11.8259 656.049C13.9861 658.227 15.232 661.149 15.3086 664.215C15.3852 667.282 14.2867 670.263 12.238 672.546L11.1542 673.606L-40.0701 718.363C-42.2752 720.29 -45.1075 721.346 -48.0356 721.332C-50.9637 721.319 -53.7864 720.238 -55.9742 718.292L-57.0349 717.22ZM-93.7206 546.018C-95.6471 543.813 -96.7029 540.981 -96.6898 538.053C-96.6766 535.124 -95.5956 532.302 -93.6494 530.114L-92.5784 529.065L-41.3413 484.297C-39.1362 482.37 -36.3039 481.314 -33.3758 481.328C-30.4477 481.341 -27.625 482.422 -25.4372 484.368L-24.3645 485.441L20.332 536.673C22.3383 538.977 23.3924 541.958 23.2802 545.011C23.1679 548.064 21.8978 550.96 19.7277 553.111C17.5576 555.261 14.6504 556.505 11.5964 556.59C8.54242 556.674 5.57076 555.593 3.28495 553.566L2.21306 552.482L-34.5751 510.339L-76.7575 547.185C-79.1589 549.283 -82.2952 550.341 -85.4765 550.126C-88.6579 549.912 -91.6239 548.443 -93.7222 546.042L-93.7206 546.018Z" fill="#FF3C82"/>
<path d="M1118.03 726.574L954.862 643.315C952.137 641.917 950.049 639.532 949.022 636.646C947.996 633.761 948.109 630.592 949.339 627.788C950.569 624.983 952.823 622.753 955.641 621.553C958.459 620.353 961.628 620.274 964.503 621.331L965.79 621.9L1128.96 705.158C1131.68 706.557 1133.77 708.942 1134.8 711.827C1135.83 714.713 1135.71 717.881 1134.48 720.686C1133.25 723.491 1131 725.721 1128.18 726.921C1125.36 728.12 1122.19 728.2 1119.32 727.143L1118.03 726.574ZM1025.55 790.161L980.792 738.937C978.785 736.633 977.731 733.651 977.843 730.598C977.956 727.545 979.226 724.649 981.396 722.499C983.566 720.348 986.473 719.104 989.527 719.02C992.581 718.935 995.553 720.016 997.839 722.043L998.899 723.115L1035.75 765.285L1077.92 728.439C1080.22 726.409 1083.21 725.336 1086.27 725.438C1089.34 725.541 1092.25 726.811 1094.41 728.989C1096.57 731.168 1097.82 734.089 1097.89 737.156C1097.97 740.223 1096.87 743.203 1094.82 745.487L1093.74 746.547L1042.51 791.304C1040.31 793.231 1037.48 794.286 1034.55 794.273C1031.62 794.26 1028.8 793.179 1026.61 791.233L1025.55 790.161ZM988.863 618.959C986.937 616.754 985.881 613.921 985.894 610.993C985.907 608.065 986.988 605.243 988.934 603.055L990.005 602.006L1041.24 557.238C1043.45 555.311 1046.28 554.255 1049.21 554.268C1052.14 554.282 1054.96 555.363 1057.15 557.309L1058.22 558.381L1102.92 609.614C1104.92 611.918 1105.98 614.899 1105.86 617.952C1105.75 621.005 1104.48 623.901 1102.31 626.052C1100.14 628.202 1097.23 629.446 1094.18 629.531C1091.13 629.615 1088.15 628.534 1085.87 626.507L1084.8 625.423L1048.01 583.28L1005.83 620.126C1003.42 622.224 1000.29 623.281 997.107 623.067C993.926 622.853 990.96 621.384 988.862 618.983L988.863 618.959Z" fill="#FF3C82"/>
<path d="M471.829 683.035L308.66 599.777C305.935 598.378 303.846 595.993 302.82 593.108C301.794 590.222 301.907 587.054 303.137 584.249C304.367 581.444 306.621 579.214 309.439 578.014C312.257 576.814 315.426 576.735 318.301 577.792L319.588 578.361L482.757 661.62C485.482 663.018 487.57 665.403 488.597 668.289C489.623 671.174 489.51 674.343 488.28 677.147C487.05 679.952 484.796 682.182 481.978 683.382C479.16 684.582 475.991 684.661 473.116 683.604L471.829 683.035ZM379.347 746.622L334.589 695.398C332.583 693.094 331.529 690.113 331.641 687.059C331.754 684.006 333.024 681.11 335.194 678.96C337.364 676.809 340.271 675.566 343.325 675.481C346.379 675.396 349.351 676.477 351.637 678.504L352.697 679.576L389.544 721.747L431.714 684.9C434.015 682.871 437.004 681.797 440.07 681.899C443.136 682.002 446.047 683.272 448.208 685.451C450.368 687.629 451.614 690.551 451.69 693.617C451.767 696.684 450.668 699.664 448.62 701.948L447.536 703.008L396.312 747.765C394.106 749.692 391.274 750.748 388.346 750.734C385.418 750.721 382.595 749.64 380.408 747.694L379.347 746.622ZM342.661 575.42C340.735 573.215 339.679 570.383 339.692 567.455C339.705 564.526 340.786 561.704 342.732 559.516L343.803 558.467L395.04 513.699C397.246 511.772 400.078 510.716 403.006 510.73C405.934 510.743 408.757 511.824 410.944 513.77L412.017 514.843L456.714 566.075C458.72 568.379 459.774 571.36 459.662 574.413C459.55 577.466 458.279 580.362 456.109 582.513C453.939 584.663 451.032 585.907 447.978 585.992C444.924 586.076 441.952 584.995 439.667 582.968L438.595 581.884L401.807 539.741L359.624 576.587C357.223 578.685 354.087 579.743 350.905 579.528C347.724 579.314 344.758 577.845 342.659 575.444L342.661 575.42Z" fill="#FF3C82"/>
<path d="M1554.41 755.976L1391.24 672.717C1388.52 671.319 1386.43 668.934 1385.4 666.048C1384.38 663.163 1384.49 659.994 1385.72 657.19C1386.95 654.385 1389.2 652.155 1392.02 650.955C1394.84 649.755 1398.01 649.676 1400.88 650.733L1402.17 651.302L1565.34 734.56C1568.07 735.959 1570.15 738.344 1571.18 741.229C1572.21 744.115 1572.09 747.283 1570.86 750.088C1569.63 752.893 1567.38 755.123 1564.56 756.323C1561.74 757.522 1558.57 757.602 1555.7 756.545L1554.41 755.976ZM1461.93 819.563L1417.17 768.339C1415.17 766.035 1414.11 763.053 1414.23 760C1414.34 756.947 1415.61 754.051 1417.78 751.901C1419.95 749.75 1422.85 748.506 1425.91 748.422C1428.96 748.337 1431.93 749.418 1434.22 751.445L1435.28 752.517L1472.13 794.687L1514.3 757.841C1516.6 755.811 1519.59 754.738 1522.65 754.84C1525.72 754.943 1528.63 756.213 1530.79 758.391C1532.95 760.57 1534.2 763.491 1534.27 766.558C1534.35 769.625 1533.25 772.605 1531.2 774.889L1530.12 775.949L1478.9 820.706C1476.69 822.633 1473.86 823.688 1470.93 823.675C1468 823.662 1465.18 822.581 1462.99 820.635L1461.93 819.563ZM1425.24 648.361C1423.32 646.156 1422.26 643.323 1422.28 640.395C1422.29 637.467 1423.37 634.645 1425.32 632.457L1426.39 631.408L1477.62 586.64C1479.83 584.713 1482.66 583.657 1485.59 583.67C1488.52 583.683 1491.34 584.765 1493.53 586.711L1494.6 587.783L1539.3 639.016C1541.3 641.32 1542.36 644.301 1542.25 647.354C1542.13 650.407 1540.86 653.303 1538.69 655.454C1536.52 657.604 1533.62 658.848 1530.56 658.933C1527.51 659.017 1524.54 657.936 1522.25 655.909L1521.18 654.825L1484.39 612.682L1442.21 649.528C1439.81 651.625 1436.67 652.683 1433.49 652.469C1430.31 652.255 1427.34 650.786 1425.24 648.385L1425.24 648.361Z" fill="#FF3C82"/>
<path d="M681.649 697.172L518.48 613.913C515.756 612.515 513.667 610.13 512.641 607.244C511.614 604.359 511.728 601.19 512.958 598.386C514.188 595.581 516.441 593.351 519.259 592.151C522.077 590.951 525.247 590.872 528.121 591.929L529.408 592.498L692.577 675.756C695.302 677.155 697.391 679.54 698.417 682.425C699.443 685.311 699.33 688.479 698.1 691.284C696.87 694.089 694.616 696.319 691.798 697.519C688.981 698.719 685.811 698.798 682.937 697.741L681.649 697.172ZM589.167 760.759L544.41 709.535C542.404 707.231 541.35 704.25 541.462 701.196C541.574 698.143 542.844 695.247 545.014 693.097C547.184 690.946 550.092 689.703 553.146 689.618C556.199 689.533 559.171 690.614 561.457 692.641L562.518 693.713L599.364 735.884L641.535 699.037C643.835 697.008 646.824 695.934 649.891 696.036C652.957 696.139 655.868 697.409 658.028 699.587C660.188 701.766 661.434 704.687 661.511 707.754C661.587 710.821 660.489 713.801 658.44 716.085L657.356 717.145L606.132 761.902C603.927 763.829 601.095 764.884 598.167 764.871C595.238 764.858 592.416 763.777 590.228 761.831L589.167 760.759ZM552.482 589.557C550.555 587.352 549.499 584.52 549.512 581.592C549.525 578.663 550.607 575.841 552.553 573.653L553.624 572.604L604.861 527.836C607.066 525.909 609.898 524.853 612.826 524.867C615.754 524.88 618.577 525.961 620.765 527.907L621.838 528.98L666.534 580.212C668.54 582.516 669.595 585.497 669.482 588.55C669.37 591.603 668.1 594.499 665.93 596.65C663.76 598.8 660.852 600.044 657.799 600.129C654.745 600.213 651.773 599.132 649.487 597.105L648.415 596.021L611.627 553.878L569.445 590.724C567.043 592.822 563.907 593.88 560.726 593.665C557.544 593.451 554.578 591.982 552.48 589.581L552.482 589.557Z" fill="#FF3C82"/>
<path d="M1764.23 770.113L1601.06 686.854C1598.34 685.456 1596.25 683.071 1595.22 680.185C1594.2 677.3 1594.31 674.131 1595.54 671.326C1596.77 668.522 1599.03 666.292 1601.84 665.092C1604.66 663.892 1607.83 663.813 1610.7 664.87L1611.99 665.439L1775.16 748.697C1777.89 750.095 1779.97 752.481 1781 755.366C1782.03 758.252 1781.91 761.42 1780.68 764.225C1779.45 767.03 1777.2 769.26 1774.38 770.46C1771.56 771.659 1768.4 771.739 1765.52 770.682L1764.23 770.113ZM1671.75 833.7L1626.99 782.476C1624.99 780.172 1623.93 777.19 1624.05 774.137C1624.16 771.084 1625.43 768.188 1627.6 766.038C1629.77 763.887 1632.68 762.643 1635.73 762.559C1638.78 762.474 1641.76 763.555 1644.04 765.582L1645.1 766.654L1681.95 808.824L1724.12 771.978C1726.42 769.948 1729.41 768.875 1732.47 768.977C1735.54 769.08 1738.45 770.35 1740.61 772.528C1742.77 774.707 1744.02 777.628 1744.09 780.695C1744.17 783.762 1743.07 786.742 1741.02 789.026L1739.94 790.086L1688.72 834.843C1686.51 836.77 1683.68 837.825 1680.75 837.812C1677.82 837.799 1675 836.718 1672.81 834.772L1671.75 833.7ZM1635.07 662.498C1633.14 660.293 1632.08 657.46 1632.1 654.532C1632.11 651.604 1633.19 648.781 1635.14 646.594L1636.21 645.545L1687.44 600.776C1689.65 598.85 1692.48 597.794 1695.41 597.807C1698.34 597.82 1701.16 598.902 1703.35 600.848L1704.42 601.92L1749.12 653.153C1751.12 655.457 1752.18 658.438 1752.07 661.491C1751.95 664.544 1750.68 667.44 1748.51 669.591C1746.34 671.741 1743.44 672.985 1740.38 673.07C1737.33 673.154 1734.36 672.073 1732.07 670.046L1731 668.961L1694.21 626.819L1652.03 663.665C1649.63 665.762 1646.49 666.82 1643.31 666.606C1640.13 666.392 1637.16 664.923 1635.06 662.522L1635.07 662.498Z" fill="#FF3C82"/>
<path d="M891.47 711.309L728.301 628.05C725.576 626.652 723.487 624.267 722.461 621.381C721.435 618.496 721.548 615.327 722.778 612.523C724.008 609.718 726.262 607.488 729.08 606.288C731.897 605.088 735.067 605.009 737.941 606.066L739.229 606.635L902.398 689.893C905.123 691.292 907.211 693.677 908.237 696.562C909.264 699.448 909.15 702.616 907.92 705.421C906.69 708.226 904.437 710.456 901.619 711.656C898.801 712.856 895.632 712.935 892.757 711.878L891.47 711.309ZM798.988 774.896L754.23 723.672C752.224 721.368 751.17 718.386 751.282 715.333C751.394 712.28 752.665 709.384 754.835 707.234C757.005 705.083 759.912 703.84 762.966 703.755C766.02 703.67 768.992 704.751 771.277 706.778L772.338 707.85L809.185 750.021L851.355 713.174C853.656 711.145 856.645 710.071 859.711 710.173C862.777 710.276 865.688 711.546 867.848 713.724C870.009 715.903 871.254 718.824 871.331 721.891C871.408 724.958 870.309 727.938 868.26 730.222L867.177 731.282L815.952 776.039C813.747 777.966 810.915 779.021 807.987 779.008C805.059 778.995 802.236 777.914 800.048 775.968L798.988 774.896ZM762.302 603.694C760.375 601.489 759.32 598.657 759.333 595.728C759.346 592.8 760.427 589.978 762.373 587.79L763.444 586.741L814.681 541.973C816.886 540.046 819.719 538.99 822.647 539.004C825.575 539.017 828.398 540.098 830.585 542.044L831.658 543.116L876.355 594.349C878.361 596.653 879.415 599.634 879.303 602.687C879.19 605.74 877.92 608.636 875.75 610.787C873.58 612.937 870.673 614.181 867.619 614.266C864.565 614.35 861.593 613.269 859.307 611.242L858.236 610.158L821.447 568.015L779.265 604.861C776.864 606.959 773.727 608.017 770.546 607.802C767.365 607.588 764.399 606.119 762.3 603.718L762.302 603.694Z" fill="#FF3C82"/>
<path d="M1955.08 782.972L1791.91 699.713C1789.19 698.315 1787.1 695.929 1786.07 693.044C1785.05 690.158 1785.16 686.99 1786.39 684.185C1787.62 681.38 1789.87 679.15 1792.69 677.951C1795.51 676.751 1798.68 676.671 1801.55 677.728L1802.84 678.297L1966.01 761.556C1968.73 762.954 1970.82 765.339 1971.85 768.225C1972.87 771.11 1972.76 774.279 1971.53 777.084C1970.3 779.889 1968.05 782.118 1965.23 783.318C1962.41 784.518 1959.24 784.598 1956.37 783.54L1955.08 782.972ZM1862.6 846.559L1817.84 795.334C1815.83 793.03 1814.78 790.049 1814.89 786.996C1815.01 783.943 1816.28 781.047 1818.45 778.896C1820.62 776.746 1823.52 775.502 1826.58 775.417C1829.63 775.333 1832.6 776.414 1834.89 778.441L1835.95 779.513L1872.8 821.683L1914.97 784.837C1917.27 782.807 1920.26 781.734 1923.32 781.836C1926.39 781.938 1929.3 783.209 1931.46 785.387C1933.62 787.565 1934.87 790.487 1934.94 793.554C1935.02 796.621 1933.92 799.601 1931.87 801.884L1930.79 802.944L1879.56 847.702C1877.36 849.628 1874.53 850.684 1871.6 850.671C1868.67 850.658 1865.85 849.577 1863.66 847.63L1862.6 846.559ZM1825.91 675.356C1823.99 673.151 1822.93 670.319 1822.94 667.391C1822.96 664.463 1824.04 661.64 1825.98 659.452L1827.05 658.404L1878.29 613.635C1880.5 611.709 1883.33 610.653 1886.26 610.666C1889.19 610.679 1892.01 611.76 1894.2 613.706L1895.27 614.779L1939.97 666.011C1941.97 668.315 1943.03 671.297 1942.91 674.35C1942.8 677.403 1941.53 680.299 1939.36 682.449C1937.19 684.6 1934.28 685.844 1931.23 685.928C1928.18 686.013 1925.2 684.932 1922.92 682.905L1921.85 681.82L1885.06 639.678L1842.88 676.523C1840.47 678.621 1837.34 679.679 1834.16 679.465C1830.98 679.25 1828.01 677.781 1825.91 675.38L1825.91 675.356Z" fill="#FF3C82"/>
<path d="M1935.68 1070.92L1772.51 987.658C1769.79 986.26 1767.7 983.874 1766.67 980.989C1765.64 978.103 1765.76 974.935 1766.99 972.13C1768.22 969.325 1770.47 967.095 1773.29 965.896C1776.11 964.696 1779.28 964.616 1782.15 965.673L1783.44 966.242L1946.61 1049.5C1949.33 1050.9 1951.42 1053.28 1952.45 1056.17C1953.47 1059.06 1953.36 1062.22 1952.13 1065.03C1950.9 1067.83 1948.65 1070.06 1945.83 1071.26C1943.01 1072.46 1939.84 1072.54 1936.97 1071.49L1935.68 1070.92ZM1843.2 1134.5L1798.44 1083.28C1796.43 1080.98 1795.38 1077.99 1795.49 1074.94C1795.6 1071.89 1796.87 1068.99 1799.04 1066.84C1801.21 1064.69 1804.12 1063.45 1807.18 1063.36C1810.23 1063.28 1813.2 1064.36 1815.49 1066.39L1816.55 1067.46L1853.39 1109.63L1895.56 1072.78C1897.87 1070.75 1900.85 1069.68 1903.92 1069.78C1906.99 1069.88 1909.9 1071.15 1912.06 1073.33C1914.22 1075.51 1915.46 1078.43 1915.54 1081.5C1915.62 1084.57 1914.52 1087.55 1912.47 1089.83L1911.39 1090.89L1860.16 1135.65C1857.96 1137.57 1855.13 1138.63 1852.2 1138.62C1849.27 1138.6 1846.45 1137.52 1844.26 1135.58L1843.2 1134.5ZM1806.51 963.301C1804.59 961.096 1803.53 958.264 1803.54 955.336C1803.56 952.408 1804.64 949.585 1806.58 947.397L1807.65 946.349L1858.89 901.58C1861.1 899.654 1863.93 898.598 1866.86 898.611C1869.78 898.624 1872.61 899.705 1874.8 901.651L1875.87 902.724L1920.56 953.956C1922.57 956.26 1923.62 959.242 1923.51 962.295C1923.4 965.348 1922.13 968.244 1919.96 970.394C1917.79 972.545 1914.88 973.789 1911.83 973.873C1908.77 973.958 1905.8 972.877 1903.52 970.85L1902.45 969.765L1865.66 927.623L1823.48 964.468C1821.07 966.566 1817.94 967.624 1814.76 967.41C1811.57 967.195 1808.61 965.726 1806.51 963.325L1806.51 963.301Z" fill="#FF3C82"/>
</g>
<defs>
<clipPath id="clip0_1_161">
<rect width="1920" height="1080" fill="white"/>
</clipPath>
</defs>
</svg>
